HIERARCHY
ROOT SpineBase
{
  OFFSET 0.000000 0.000000 0.000000
  CHANNELS 6 Xposition Yposition Zposition Zrotation Xrotation Yrotation
  JOINT SpineMid
  {
    OFFSET 0.000000 31.016013 0.000000
    CHANNELS 3 Zrotation Xrotation Yrotation
    JOINT SpineShoulder
    {
      OFFSET 0.179894 22.929519 -0.737507
      CHANNELS 3 Zrotation Xrotation Yrotation
      JOINT Neck
      {
        OFFSET 0.054188 7.566077 -0.619740
        CHANNELS 3 Zrotation Xrotation Yrotation
        JOINT Head
        {
          OFFSET -2.933868 15.219007 -1.849203
          CHANNELS 3 Zrotation Xrotation Yrotation
          End Site
          {
            OFFSET 0 0 0
          }
        }
      }
      JOINT ShoulderLeft
      {
        OFFSET -17.026295 -4.515154 3.186080
        CHANNELS 3 Zrotation Xrotation Yrotation
        JOINT ElbowLeft
        {
          OFFSET -3.029979 -28.604350 5.693842
          CHANNELS 3 Zrotation Xrotation Yrotation
          JOINT WristLeft
          {
            OFFSET -0.235546 -22.606123 -3.359060
            CHANNELS 3 Zrotation Xrotation Yrotation
            JOINT HandLeft
            {
              OFFSET -0.141211 -5.293556 -0.038871
              CHANNELS 3 Zrotation Xrotation Yrotation
              JOINT HandTipLeft
              {
                OFFSET 0.349331 -6.973350 -0.609331
                CHANNELS 3 Zrotation Xrotation Yrotation
                End Site
                {
                  OFFSET 0 0 0
                }
              }
              JOINT ThumbLeft
              {
                OFFSET -3.365523 2.790514 -0.654613
                CHANNELS 3 Zrotation Xrotation Yrotation
                End Site
                {
                  OFFSET 0 0 0
                }
              }
            }
          }
        }
      }
      JOINT ShoulderRight
      {
        OFFSET 15.940280 -3.124184 -5.953435
        CHANNELS 3 Zrotation Xrotation Yrotation
        JOINT ElbowRight
        {
          OFFSET 7.194137 -27.678561 -0.009778
          CHANNELS 3 Zrotation Xrotation Yrotation
          JOINT WristRight
          {
            OFFSET -0.399649 -23.387131 -5.571525
            CHANNELS 3 Zrotation Xrotation Yrotation
            JOINT HandRight
            {
              OFFSET -1.541598 -6.359022 0.128461
              CHANNELS 3 Zrotation Xrotation Yrotation
              JOINT HandTipRight
              {
                OFFSET 0.355043 -7.053944 -1.083942
                CHANNELS 3 Zrotation Xrotation Yrotation
                End Site
                {
                  OFFSET 0 0 0
                }
              }
              JOINT ThumbRight
              {
                OFFSET 2.500489 -1.621977 -3.169449
                CHANNELS 3 Zrotation Xrotation Yrotation
                End Site
                {
                  OFFSET 0 0 0
                }
              }
            }
          }
        }
      }
    }
  }
  JOINT HipLeft
  {
    OFFSET -6.993172 0.420317 -2.077623
    CHANNELS 3 Zrotation Xrotation Yrotation
    JOINT KneeLeft
    {
      OFFSET 2.779233 -35.157341 5.062580
      CHANNELS 3 Zrotation Xrotation Yrotation
      JOINT AnkleLeft
      {
        OFFSET 5.058371 -37.276884 7.105306
        CHANNELS 3 Zrotation Xrotation Yrotation
        JOINT FootLeft
        {
          OFFSET 2.762754 -8.371001 -6.304739
          CHANNELS 3 Zrotation Xrotation Yrotation
          End Site
          {
            OFFSET 0 0 0
          }
        }
      }
    }
  }
  JOINT HipRight
  {
    OFFSET 7.629881 1.288711 -5.047619
    CHANNELS 3 Zrotation Xrotation Yrotation
    JOINT KneeRight
    {
      OFFSET 4.234613 -33.199866 2.856675
      CHANNELS 3 Zrotation Xrotation Yrotation
      JOINT AnkleRight
      {
        OFFSET -1.105325 -39.715682 9.592418
        CHANNELS 3 Zrotation Xrotation Yrotation
        JOINT FootRight
        {
          OFFSET -0.387411 -9.408498 -4.618055
          CHANNELS 3 Zrotation Xrotation Yrotation
          End Site
          {
            OFFSET 0 0 0
          }
        }
      }
    }
  }
}
MOTION
Frames: 12
Frame Time: 0.033333
-29.844580 82.713152 340.176206 -0.000000 0.000000 11.480818 0.000000 0.000000 -11.480818 -0.000000 0.000000 0.000000 -0.000000 0.000000 0.000000 0.000000 0.000000 0.000000 -0.000000 0.000000 0.000000 -0.000000 0.000000 0.000000 -0.000000 0.000000 0.000000 -0.000000 0.000000 0.000000 0.000000 0.000000 0.000000 0.000000 0.000000 0.000000 -0.000000 0.000000 0.000000 -0.000000 0.000000 0.000000 -0.000000 0.000000 0.000000 -0.000000 0.000000 0.000000 0.000000 0.000000 0.000000 0.000000 0.000000 0.000000 0.000000 0.000000 -11.480818 -0.000000 0.000000 0.000000 -0.000000 0.000000 0.000000 0.000000 0.000000 0.000000 0.000000 0.000000 -11.480818 -0.000000 0.000000 0.000000 -0.000000 0.000000 0.000000 0.000000 0.000000 0.000000
-29.779709 82.694153 340.290241 0.157465 -0.240733 11.523026 -0.106203 0.267336 -11.522447 -0.000000 0.000000 0.000000 -0.000000 0.000000 0.000000 0.000000 0.000000 0.000000 -0.000000 0.000000 0.000000 -0.000000 0.000000 0.000000 -1.931613 5.928755 -0.044038 0.308834 -6.037780 0.211139 0.000000 0.000000 0.000000 0.000000 0.000000 0.000000 -0.000000 0.000000 0.000000 -0.000000 0.000000 0.000000 -0.826077 4.518804 -1.079085 -1.124067 -5.791058 1.217957 0.000000 0.000000 0.000000 0.000000 0.000000 0.000000 -0.106203 0.267336 -11.522447 -0.000000 0.000000 0.000000 -0.000000 0.000000 0.000000 0.000000 0.000000 0.000000 -0.106203 0.267336 -11.522447 -0.000000 0.000000 0.000000 -1.538302 8.933990 0.487693 0.000000 0.000000 0.000000
-29.724780 82.678288 340.390648 0.269496 -0.426664 11.575991 -0.178404 0.472061 -11.574252 -0.000000 0.000000 0.000000 -0.883573 0.605656 0.014096 0.000000 0.000000 0.000000 -0.000000 0.000000 0.000000 -0.000000 0.000000 0.000000 -3.385287 10.764844 0.055822 0.389442 -10.854481 0.272956 0.000000 0.000000 0.000000 0.000000 0.000000 0.000000 -0.000000 0.000000 0.000000 0.424773 0.929388 -0.120297 -1.840231 7.199119 -1.808864 -2.088170 -10.486069 1.981254 0.000000 0.000000 0.000000 0.000000 0.000000 0.000000 -0.178404 0.472061 -11.574252 -0.000000 0.000000 0.000000 -0.000000 0.000000 0.000000 0.000000 0.000000 0.000000 -0.178404 0.472061 -11.574252 -0.000000 0.000000 0.000000 -3.215774 15.701091 1.283363 0.000000 0.000000 0.000000
-29.679794 82.665556 340.477425 0.335960 -0.557606 11.639289 -0.216569 0.613913 -11.636494 -0.000000 0.000000 0.000000 -1.069648 0.744275 0.020509 0.000000 0.000000 0.000000 -0.000000 0.000000 0.000000 -0.000000 0.000000 0.000000 -4.338952 14.442424 0.194213 0.229821 -14.375867 0.231247 0.000000 0.000000 0.000000 0.000000 0.000000 0.000000 0.796388 0.317474 0.079885 -0.259468 1.047357 -0.238161 -2.351485 9.612366 -2.426214 -2.906028 -14.196381 2.440091 0.000000 0.000000 0.000000 0.000000 0.000000 0.000000 -0.216569 0.613913 -11.636494 0.783372 0.499050 0.213607 -1.500871 -0.770186 0.220159 0.000000 0.000000 0.000000 -0.216569 0.613913 -11.636494 -0.000000 0.000000 0.000000 -5.027972 20.349309 2.316989 0.000000 0.000000 0.000000
-29.644750 82.655959 340.550574 0.356770 -0.633435 11.712652 -0.220771 0.692663 -11.709346 -0.000000 0.000000 0.000000 -1.086383 0.774291 0.024668 0.000000 0.000000 0.000000 -0.000000 0.000000 0.000000 -0.000000 0.000000 0.000000 -4.775181 16.968677 0.291182 -0.152808 -16.600922 0.134671 0.000000 0.000000 0.000000 0.000000 0.000000 0.000000 0.883696 0.435032 0.109187 -0.307566 1.339617 -0.286767 -2.645668 11.408264 -2.913101 -3.566826 -17.021311 2.707952 0.000000 0.000000 0.000000 0.000000 0.000000 0.000000 -0.220771 0.692663 -11.709346 0.920679 0.606946 0.252958 -1.612228 -0.858820 0.162424 0.000000 0.000000 0.000000 -0.220771 0.692663 -11.709346 -0.000000 0.000000 0.000000 -6.959376 23.060075 3.516854 0.000000 0.000000 0.000000
-29.619649 82.649494 340.610093 0.331890 -0.654085 11.795968 -0.191187 0.708112 -11.792892 -0.000000 0.000000 0.000000 -0.933601 0.695668 0.026398 0.000000 0.000000 0.000000 0.051044 0.967050 -0.092870 -0.049484 -0.967131 0.092021 -4.679352 18.370296 0.296483 -0.732192 -17.550593 0.029631 0.000000 0.000000 0.000000 0.000000 0.000000 0.000000 0.884032 0.559284 0.140460 -0.343153 1.595690 -0.317941 -2.747133 12.682328 -3.296013 -4.050818 -19.040272 2.869607 0.000000 0.000000 0.000000 0.000000 0.000000 0.000000 -0.191187 0.708112 -11.792892 0.996288 0.685381 0.276941 -0.999659 -0.680453 -0.288836 0.000000 0.000000 0.000000 -0.191187 0.708112 -11.792892 -0.000000 0.000000 0.000000 -8.983738 23.980322 4.808452 0.000000 0.000000 0.000000
-29.625569 82.646082 340.644701 0.276746 -0.632545 11.859979 -0.140850 0.675915 -11.857620 -0.000000 0.000000 0.000000 -0.627300 0.588123 0.040443 0.000000 0.000000 0.000000 0.076551 1.268404 -0.120247 -0.073907 -1.268561 0.118581 -3.120512 18.788031 0.033517 -1.731365 -15.568185 0.122628 0.000000 0.000000 0.000000 0.000000 0.000000 0.000000 0.872540 0.741426 0.186389 -0.569138 1.802611 -0.314149 -2.790634 13.749701 -3.663931 -3.490354 -19.925910 3.235322 0.000000 0.000000 0.000000 0.000000 0.000000 0.000000 -0.140850 0.675915 -11.857620 1.081219 0.763634 0.302511 -2.243618 -0.970731 0.468387 0.000000 0.000000 0.000000 -0.140850 0.675915 -11.857620 1.065568 0.412930 0.242312 -13.517706 22.601038 6.706478 0.000000 0.000000 0.000000
-29.620342 82.647207 340.668773 0.155513 -0.529391 11.970721 -0.042333 0.550133 -11.969799 -0.000000 0.000000 0.000000 -0.000000 0.000000 0.000000 0.000000 0.000000 0.000000 0.099647 1.548734 -0.145981 -0.789668 -0.966433 0.224826 -0.850489 16.394130 -0.323118 -3.004725 -13.013649 0.074168 0.000000 0.000000 0.000000 0.000000 0.000000 0.000000 0.671300 0.873222 0.221279 -0.626270 1.998843 -0.289488 -2.457677 14.564131 -3.992466 -3.898292 -20.879042 3.357908 0.000000 0.000000 0.000000 0.000000 0.000000 0.000000 -0.042333 0.550133 -11.969799 1.089465 0.805144 0.309285 -2.104106 -0.733738 0.444598 0.000000 0.000000 0.000000 -0.042333 0.550133 -11.969799 1.539406 0.693839 0.343829 -15.982190 19.986322 7.684902 0.000000 0.000000 0.000000
-29.621543 82.652561 340.693034 -0.014327 -0.379926 12.112182 0.093728 0.368462 -12.112531 -0.000000 0.000000 0.000000 -0.000000 0.000000 0.000000 0.000000 0.000000 0.000000 0.118901 1.817669 -0.171335 -0.857162 -1.094935 0.251255 1.325920 14.388066 -0.577384 -5.234290 -11.821969 -0.193905 0.000000 0.000000 0.000000 0.000000 0.000000 0.000000 0.345529 1.054462 0.270566 -0.521357 2.047808 -0.284146 -2.020503 14.247825 -4.044058 -3.393939 -19.521479 3.565649 0.000000 0.000000 0.000000 0.000000 0.000000 0.000000 0.093728 0.368462 -12.112531 0.827018 0.692232 0.246621 0.729427 -4.436860 -2.656537 0.000000 0.000000 0.000000 0.093728 0.368462 -12.112531 1.872467 0.748884 0.420063 -16.862841 14.760438 7.649146 0.000000 0.000000 0.000000
-29.621059 82.659170 340.708385 -0.216292 -0.185750 12.279891 0.250850 0.135496 -12.280539 -0.756016 0.459266 -0.062203 2.027723 -1.071874 0.120896 0.000000 0.000000 0.000000 0.893032 1.575882 -0.121603 -0.896249 -1.078959 0.268360 2.860849 13.048594 -0.710253 -7.071359 -13.191139 -0.577555 0.000000 0.000000 0.000000 0.000000 0.000000 0.000000 0.677478 0.784125 0.391558 -0.254043 2.053707 -0.294737 -1.522659 12.927106 -3.848672 -3.586391 -18.312384 3.363578 0.000000 0.000000 0.000000 0.000000 0.000000 0.000000 0.250850 0.135496 -12.280539 0.602826 0.608281 0.194306 2.265445 -3.157260 -3.137637 0.000000 0.000000 0.000000 0.250850 0.135496 -12.280539 2.175531 0.821147 0.488168 -17.038216 7.015762 7.047680 0.000000 0.000000 0.000000
-29.617305 82.660271 340.706727 -0.416108 0.027290 12.493658 0.400352 -0.116660 -12.493152 -1.011342 0.741172 -0.081646 3.115697 -1.773057 0.195800 0.000000 0.000000 0.000000 1.202866 1.491813 -0.105064 -0.416444 -1.256848 0.211388 4.190999 11.016541 -0.720914 -8.493989 -10.371213 -0.476570 0.000000 0.000000 0.000000 0.000000 0.000000 0.000000 0.362255 1.198195 0.602290 0.386192 0.921969 -0.481460 -0.741688 11.782044 -3.520219 -5.743464 -18.229699 2.667722 0.000000 0.000000 0.000000 0.000000 0.000000 0.000000 0.400352 -0.116660 -12.493152 -0.000000 0.000000 0.000000 1.194917 6.540446 1.139662 0.000000 0.000000 0.000000 0.400352 -0.116660 -12.493152 2.314160 0.902269 0.516943 -18.250046 8.014008 7.636386 0.000000 0.000000 0.000000
-29.620177 82.657428 340.717708 -0.636509 0.227767 12.658170 -0.116096 0.318435 -12.685750 -0.384470 0.449969 -0.072172 3.913151 -2.257573 0.268417 0.000000 0.000000 0.000000 1.511341 1.402560 -0.074850 -0.310281 -1.452803 0.174048 3.893995 8.840798 -0.550684 -7.829061 -6.114119 -0.061978 0.000000 0.000000 0.000000 0.000000 0.000000 0.000000 0.465919 0.836389 0.583495 0.296100 1.171791 -0.403686 -0.207989 9.735082 -3.114226 -6.358091 -15.686708 2.406718 0.000000 0.000000 0.000000 0.000000 0.000000 0.000000 0.571139 -0.361697 -12.655102 -0.000000 0.000000 0.000000 0.904619 8.705332 2.007884 0.000000 0.000000 0.000000 0.571139 -0.361697 -12.655102 2.511767 1.069811 0.555115 -17.713093 -2.419322 6.488283 0.000000 0.000000 0.000000
